<svg width="357" height="350" viewBox="0 0 357 350" fill="none" xmlns="http://www.w3.org/2000/svg">
<path d="M182.581 304.544C176.003 304.438 170.584 309.685 170.478 316.264C170.373 322.842 175.619 328.26 182.198 328.366C188.776 328.472 194.194 323.225 194.3 316.647C194.406 310.069 189.159 304.65 182.581 304.544Z" stroke="#0D99FF" stroke-width="3" stroke-linecap="round" stroke-linejoin="round"/>
<path d="M158.759 304.161C168.028 283.46 183.3 259.878 183.3 259.878C183.3 259.878 197.805 283.94 206.403 304.928C215.001 325.916 199.824 343.542 181.958 343.255C164.091 342.967 149.49 324.861 158.759 304.161Z" stroke="#0D99FF" stroke-width="5" stroke-linecap="round" stroke-linejoin="round"/>
<path d="M182.697 45.4631C189.275 45.5732 194.697 40.3298 194.807 33.7516C194.917 27.1734 189.674 21.7515 183.096 21.6414C176.517 21.5313 171.096 26.7747 170.985 33.3529C170.875 39.931 176.119 45.353 182.697 45.4631Z" stroke="#0D99FF" stroke-width="3" stroke-linecap="round" stroke-linejoin="round"/>
<path d="M206.519 45.8619C197.237 66.5563 181.95 90.1288 181.95 90.1288C181.95 90.1288 167.46 66.0579 158.876 45.0644C150.291 24.0709 165.479 6.45384 183.345 6.75289C201.211 7.05195 215.801 25.1674 206.519 45.8619Z" stroke="#0D99FF" stroke-width="5" stroke-linecap="round" stroke-linejoin="round"/>
<path d="M310.922 175.078C311.005 181.657 316.405 186.923 322.984 186.84C329.562 186.757 334.828 181.357 334.746 174.779C334.663 168.2 329.263 162.934 322.684 163.017C316.106 163.1 310.84 168.5 310.922 175.078Z" stroke="#0D99FF" stroke-width="3" stroke-linecap="round" stroke-linejoin="round"/>
<path d="M311.222 198.902C290.264 190.23 266.254 175.64 266.254 175.64C266.254 175.64 289.89 160.451 310.623 151.255C331.356 142.06 349.41 156.724 349.635 174.592C349.86 192.459 332.18 207.573 311.222 198.902Z" stroke="#0D99FF" stroke-width="5" stroke-linecap="round" stroke-linejoin="round"/>
<path d="M46.5795 175.504C46.8481 168.93 41.7368 163.384 35.1632 163.115C28.5896 162.847 23.0429 167.958 22.7743 174.531C22.5058 181.105 27.6171 186.652 34.1907 186.92C40.7643 187.189 46.311 182.078 46.5795 175.504Z" stroke="#0D99FF" stroke-width="3" stroke-linecap="round" stroke-linejoin="round"/>
<path d="M47.5522 151.698C68.017 161.476 91.2143 177.327 91.2143 177.327C91.2143 177.327 66.8013 191.233 45.6071 199.309C24.4129 207.385 7.16684 191.777 7.89624 173.923C8.62563 156.069 27.0873 141.921 47.5522 151.698Z" stroke="#0D99FF" stroke-width="5" stroke-linecap="round" stroke-linejoin="round"/>
<path d="M264.265 93.0225C267.983 96.499 273.815 96.3034 277.292 92.5857C280.768 88.868 280.573 83.0359 276.855 79.5594C273.137 76.083 267.305 76.2785 263.829 79.9963C260.352 83.714 260.548 89.5461 264.265 93.0225Z" stroke="#0D99FF" stroke-width="3" stroke-linecap="round" stroke-linejoin="round"/>
<path d="M277.729 105.612C261.664 112.671 240.66 118.266 240.66 118.266C240.66 118.266 244.835 96.9346 250.802 80.4333C256.77 63.932 274.626 61.7031 284.723 71.1452C294.821 80.5873 293.793 98.553 277.729 105.612Z" stroke="#0D99FF" stroke-width="5" stroke-linecap="round" stroke-linejoin="round"/>
<path d="M93.1353 95.378C96.4699 90.8657 95.5151 84.5046 91.0028 81.17C86.4904 77.8355 80.1293 78.7903 76.7948 83.3026C73.4603 87.8149 74.415 94.176 78.9274 97.5106C83.4397 100.845 89.8008 99.8903 93.1353 95.378Z" stroke="#0D99FF" stroke-width="3" stroke-linecap="round" stroke-linejoin="round"/>
<path d="M105.211 79.0373C114.981 95.731 123.774 118.019 123.774 118.019C123.774 118.019 99.8863 116.157 81.06 111.718C62.2338 107.28 57.5255 88.0107 66.582 75.7553C75.6386 63.4999 95.4411 62.3436 105.211 79.0373Z" stroke="#0D99FF" stroke-width="5" stroke-linecap="round" stroke-linejoin="round"/>
<path d="M90.6763 255.326C87.6433 251.565 82.1363 250.976 78.3761 254.009C74.6159 257.042 74.0264 262.549 77.0595 266.309C80.0925 270.069 85.5995 270.659 89.3597 267.626C93.1199 264.593 93.7094 259.086 90.6763 255.326Z" stroke="#0D99FF" stroke-width="3" stroke-linecap="round" stroke-linejoin="round"/>
<path d="M79.6927 241.709C95.7263 237.204 116.208 234.731 116.208 234.731C116.208 234.731 109.456 254.225 101.66 268.942C93.864 283.659 76.7866 283.386 68.5489 273.174C60.3112 262.961 63.6591 246.213 79.6927 241.709Z" stroke="#0D99FF" stroke-width="5" stroke-linecap="round" stroke-linejoin="round"/>
<path d="M268.098 251.338C265.466 254.913 266.23 259.944 269.805 262.576C273.38 265.208 278.412 264.443 281.044 260.869C283.676 257.294 282.911 252.262 279.336 249.63C275.761 246.998 270.73 247.763 268.098 251.338Z" stroke="#0D99FF" stroke-width="3" stroke-linecap="round" stroke-linejoin="round"/>
<path d="M258.567 264.284C250.813 251.089 243.824 233.467 243.824 233.467C243.824 233.467 262.727 234.907 277.629 238.392C292.53 241.877 296.283 257.116 289.135 266.826C281.987 276.535 266.32 277.478 258.567 264.284Z" stroke="#0D99FF" stroke-width="5" stroke-linecap="round" stroke-linejoin="round"/>
<path d="M181.221 236.751C197.599 236.751 213.306 230.245 224.886 218.664C236.467 207.084 242.973 191.377 242.973 174.999C242.973 158.622 236.467 142.915 224.886 131.334C213.306 119.753 197.599 113.247 181.221 113.247C164.844 113.247 149.137 119.753 137.556 131.334C125.975 142.915 119.469 158.622 119.469 174.999C119.469 191.377 125.975 207.084 137.556 218.664C149.137 230.245 164.844 236.751 181.221 236.751Z" stroke="#0D99FF" stroke-width="5" stroke-linecap="round" stroke-linejoin="round"/>
<path d="M212.182 168.122V181.876C212.182 182.79 211.819 183.666 211.173 184.312C210.527 184.958 209.65 185.321 208.737 185.321H191.544V202.514C191.544 203.428 191.181 204.304 190.534 204.95C189.888 205.597 189.012 205.96 188.098 205.96H174.344C173.43 205.96 172.554 205.597 171.908 204.95C171.262 204.304 170.899 203.428 170.899 202.514V185.321H153.712C152.799 185.321 151.922 184.958 151.276 184.312C150.63 183.666 150.267 182.79 150.267 181.876V168.122C150.267 167.208 150.63 166.332 151.276 165.686C151.922 165.04 152.799 164.677 153.712 164.677H170.905V147.49C170.905 146.577 171.268 145.7 171.914 145.054C172.561 144.408 173.437 144.045 174.351 144.045H188.105C189.019 144.045 189.895 144.408 190.541 145.054C191.187 145.7 191.55 146.577 191.55 147.49V164.683H208.743C209.195 164.683 209.643 164.772 210.061 164.946C210.479 165.119 210.859 165.372 211.179 165.692C211.499 166.012 211.753 166.392 211.926 166.81C212.099 167.228 212.188 167.676 212.188 168.128" stroke="#0D99FF" stroke-width="5" stroke-linecap="round" stroke-linejoin="round"/>
</svg>
